<?xml version="1.0" encoding="utf-8"?>
<!-- Generator: Adobe Illustrator 21.1.0, SVG Export Plug-In . SVG Version: 6.00 Build 0)  -->
<svg version="1.1" id="Layer_1" xmlns="http://www.w3.org/2000/svg" xmlns:xlink="http://www.w3.org/1999/xlink" x="0px" y="0px"
	 viewBox="0 0 900 600" style="enable-background:new 0 0 900 600;" xml:space="preserve">
<style type="text/css">
	.st0{fill:url(#SVGID_1_);}
	.st1{fill:#222323;}
	.st2{fill:url(#SVGID_2_);}
</style>
<g>
	<linearGradient id="SVGID_1_" gradientUnits="userSpaceOnUse" x1="362.7641" y1="251.8846" x2="-141.4874" y2="273.915">
		<stop  offset="0" style="stop-color:#00CCE9"/>
		<stop  offset="8.999372e-02" style="stop-color:#0CA4ED"/>
		<stop  offset="0.2597" style="stop-color:#215EF5"/>
		<stop  offset="0.4016" style="stop-color:#302BFA"/>
		<stop  offset="0.5082" style="stop-color:#390CFE"/>
		<stop  offset="0.5674" style="stop-color:#3D00FF"/>
		<stop  offset="0.9944" style="stop-color:#005B97"/>
		<stop  offset="1" style="stop-color:#1241B5"/>
	</linearGradient>
	<path class="st0" d="M309,322.1c-3.4-5.1-6.8-10.2-10.3-15.3c-1.7-2.5-4.4-8-7.8-8.5c-2.2-0.4-4.1,1.4-5.7,3
		c-9.5,9.4-21.7,16.8-34.7,20.4c-14.6,4-30.8,2.8-43.8-4.8c-9.3-5.4-16.7-14-21.4-23.6s-7.1-20.5-7.5-31.2
		c-0.7-17.9,4.3-36.8,16.3-50.4c2.8-3.1,5.9-5.9,9.3-8.2c7.1-4.7,15.3-7.7,23.8-8.6c15-1.6,30.3,3,42.9,11.3
		c4.3,2.9,8.4,6.1,12.3,9.6c2.9,2.5,7.1,8.3,11.5,5.1c1.1-0.8,1.9-2.1,2.7-3.3c8.3-13,16.1-26.4,23.1-40.2c0.9-1.9,1.9-3.9,1.8-6
		c-0.2-4.2-4-8-6.7-10.8c-16.6-17.4-40.1-26.9-63.8-30.9c-23.4-3.9-47.1-2.4-70.8-1.7c-17.8,0.5-35.7,0.8-53.4,2.4
		c-8.1,0.7-16.9,1.8-21.2,9.7c-2.1,3.8-2.6,8.3-1.5,12.5c0.8,2.8,2.4,5.5,4.7,7.3c4.1,3.3,9.7,3.7,15,3.8c6.9,0.2,13.9,0.7,18.7,6.3
		c4.1,4.8,5.7,11.8,3.8,17.8c-2.7,8.5-11.4,14.5-20.4,14.8c-4.3,0.2-8.7-0.8-12.8,0.4c-8.2,2.3-12.1,13-8.8,20.8
		s11.9,12.5,20.4,13.1c6.4,0.4,12.9-1.1,19.3,0c8,1.4,15.2,7.6,17.2,15.4c2,7.9-1.7,17-8.9,20.8c-4.9,2.6-10.7,2.6-16.3,2.5
		c-15.6-0.1-31.2-0.6-46.8-0.5c-5.5,0-11.2,0.8-15.8,3.7c-6.6,4.2-10.1,12.7-8.3,20.2c0.9,3.8,3,7.4,6,10c8.4,7.3,20.6,5.9,30.8,5.4
		c10.4-0.4,20.9-1.5,31.3-1.2c6.1,0.1,12.2,0.7,17.8,3.1c5.6,2.3,10.6,6.6,12.6,12.4c2.3,6.6-0.4,13.2-5.5,17.5
		c-5.4,4.5-14,5.5-20.7,5.3c-7.4-0.3-14.8-1.7-22.2-1.2c-7.4,0.5-15.2,3.5-19,9.8c-1.9,3.1-2.7,6.9-2.5,10.6c0.2,3.6,1.5,7.2,3.7,10
		c4.2,5.3,11.2,7.6,18,8.2c7.9,0.7,16,0.4,23.9,0.5c8.5,0.2,17,0.3,25.4,0.5c12.7,0.2,25.5,0.4,38.2,0.5c22.5,0.2,45.2,0,66.9-6.6
		c6.9-2.1,13.6-4.8,20-8.2c11.5-6.2,21.8-15,29.1-25.9c2.7-4.1,3.3-7.1,0.6-11.4C316,332.8,312.5,327.4,309,322.1z"/>
	<g>
		<path class="st1" d="M368.6,263.5c0,3.5,0.2,8.6,0.6,15.5c0.4,6.9,0.6,12,0.6,15.4c0,1.8-0.8,2.8-2.4,2.9
			c-5.6,0.4-12,0.6-19.2,0.6c-0.9,0-1.4-1.3-1.7-3.9c-0.3-2.6-0.6-3.9-1-4c-0.4,0.2-0.8,0.6-1.4,1.2c-5.1,5.1-10.5,7.6-16.2,7.6
			c-8.8,0-16.1-3.5-21.9-10.4c-5.5-6.5-8.2-14.3-8.2-23.3c0-10.4,2.8-18.8,8.5-25.2c5.9-6.6,13.9-9.9,24.1-9.9
			c7.1,0,12.7,2.5,16.8,7.4c0.2,0.2,0.3,0.3,0.5,0.3c0.4,0,0.9-1.1,1.4-3.3c0.5-2.2,1.1-3.3,1.9-3.3c1.7,0,4.9,0.5,9.5,1.4
			c4.5,0.9,7.7,1.7,9.6,2.3c0.7,0.3,1,0.6,1,1.1c0,0.2-0.1,0.7-0.2,1.4C369.3,245.7,368.6,254.4,368.6,263.5z M346.8,263.9
			c0-3.8-1.2-7-3.6-9.5c-2.4-2.5-5.6-3.8-9.4-3.8c-3.9,0-7,1.2-9.4,3.7c-2.4,2.5-3.6,5.7-3.6,9.5c0,3.7,1.3,6.8,3.8,9.4
			c2.5,2.6,5.6,3.9,9.2,3.9c3.8,0,7-1.3,9.4-3.8C345.6,271,346.8,267.8,346.8,263.9z"/>
		<path class="st1" d="M421.7,242.6c0,0.5-0.3,1.1-1,1.8c-1.3-0.3-2.5-0.5-3.8-0.5c-2.7,0-4.9,0.6-6.7,1.8c-2.2,1.4-3.2,3.3-3.2,5.8
			c0,1.6,1.2,3.6,3.5,6c3.5,3.7,5.6,6.1,6.4,7.4c2.3,3.4,3.5,7.1,3.5,11c0,2.3-0.5,4.7-1.4,7.3c-1,2.8-2.3,4.9-3.9,6.2
			c-3.3,2.9-7.2,5.3-11.7,7.3c-4.8,2.1-9.3,3.1-13.3,3.1c-0.9,0-2.9-2.4-6.1-7.3c-3.1-4.9-4.7-7.9-4.7-9c0-0.4,0.2-0.7,0.7-0.7
			c3.2-0.6,6.3-1.2,9.5-1.8c4-1.3,6-3.3,6-6.2c0-2-1.2-4.3-3.5-6.9c-4.1-4.6-6.3-7-6.4-7.2c-2.3-3.2-3.5-6.7-3.5-10.3
			c0-6.8,3.4-12.5,10.3-17.3c6.1-4.2,12.7-6.3,19.7-6.3c0.7,0,2.5,2.4,5.3,7.3S421.7,241.8,421.7,242.6z"/>
		<path class="st1" d="M476.2,252.8c0,0-1.4-0.4-4.1-1.1s-4.9-1.1-6.5-1.1c-4,0-7.2,1.2-9.6,3.6s-3.6,5.6-3.6,9.6
			c0,4.2,1.3,7.4,3.9,9.8c2.6,2.4,6,3.6,10.2,3.6c2,0,4.2-0.5,6.7-1.5s3.7-1.5,3.5-1.5c0.8,0,1.8,2.9,3,8.6c1,5.2,1.6,8.7,1.6,10.4
			c0,1.7-2.8,3.2-8.4,4.4c-4.3,0.9-7.8,1.4-10.5,1.4c-9.9,0-18.1-3.3-24.6-10c-6.5-6.7-9.7-15-9.7-25c0-9.9,3.2-18.2,9.7-24.9
			c6.5-6.7,14.7-10.1,24.5-10.1c6.7,0,12.6,1.4,17.7,4.3c1.2,0.6,1.8,1.2,1.8,1.8c0,0.6-0.7,3.2-2,8c-1.3,4.6-2.1,7.3-2.5,8.3
			C477,252.3,476.7,252.8,476.2,252.8z"/>
		<path class="st1" d="M557.1,263.5c0,3.5,0.2,8.6,0.6,15.5c0.4,6.9,0.6,12,0.6,15.4c0,1.8-0.8,2.8-2.4,2.9
			c-5.6,0.4-12,0.6-19.2,0.6c-0.9,0-1.4-1.3-1.7-3.9c-0.3-2.6-0.6-3.9-1-4c-0.4,0.2-0.8,0.6-1.4,1.2c-5.1,5.1-10.5,7.6-16.2,7.6
			c-8.8,0-16.1-3.5-21.9-10.4c-5.5-6.5-8.2-14.3-8.2-23.3c0-10.4,2.8-18.8,8.5-25.2c5.9-6.6,13.9-9.9,24.1-9.9
			c7.1,0,12.7,2.5,16.8,7.4c0.2,0.2,0.3,0.3,0.5,0.3c0.4,0,0.9-1.1,1.4-3.3c0.5-2.2,1.1-3.3,1.9-3.3c1.7,0,4.9,0.5,9.5,1.4
			c4.5,0.9,7.7,1.7,9.6,2.3c0.7,0.3,1,0.6,1,1.1c0,0.2-0.1,0.7-0.2,1.4C557.9,245.7,557.1,254.4,557.1,263.5z M535.3,263.9
			c0-3.8-1.2-7-3.6-9.5c-2.4-2.5-5.6-3.8-9.4-3.8c-3.9,0-7,1.2-9.4,3.7c-2.4,2.5-3.6,5.7-3.6,9.5c0,3.7,1.3,6.8,3.8,9.4
			c2.5,2.6,5.6,3.9,9.2,3.9c3.8,0,7-1.3,9.4-3.8C534.1,271,535.3,267.8,535.3,263.9z"/>
		<path class="st1" d="M642.4,201.3c0-1-0.2,0.5-0.5,4.5c-0.5,5-0.9,11.4-1.2,19.2c-0.4,8.8-0.5,18.9-0.5,30.2
			c0,18.6,0.5,31.9,1.6,39.8c0.1,0.9,0.1,1.4,0.1,1.6c0,0.5-0.3,0.8-1,0.9c-1.6,0.2-7.6,0.3-17.9,0.3c-2.4,0-3.8-0.5-4.2-1.4
			c-0.1-1.7-0.2-3.4-0.3-5.1c0-0.4-0.2-0.7-0.5-1.1c-0.3,0.1-0.6,0.4-1,0.8c-4.9,4.8-11,7.2-18.3,7.2c-9.5,0-17.1-3.3-22.9-10
			c-5.5-6.4-8.2-14.4-8.2-24.1c0-9.8,2.7-17.9,8.1-24.3c5.7-6.8,13.4-10.2,23-10.2c6.8,0,12.1,2.2,15.9,6.5c0.6,0.7,1.1,1.1,1.4,1.1
			c0.4,0,0.6-0.6,0.6-1.8c0-3.5-0.1-8.7-0.3-15.6c-0.2-6.9-0.3-12.1-0.3-15.5c0-1.3,0.4-2.1,1.1-2.2c2.9-0.1,6.9-0.4,11.9-0.8
			c9-1.1,13-1.7,12-1.7C641.9,199.6,642.4,200.2,642.4,201.3z M616.9,263.5c0-3.6-1.2-6.7-3.7-9.4c-2.5-2.7-5.5-4-9-4
			c-3.7,0-6.6,1.3-8.8,4s-3.3,5.9-3.3,9.6c0,3.7,1.1,6.7,3.3,9.3c2.3,2.7,5.2,4.1,8.8,4.1s6.6-1.4,9.1-4.1
			C615.6,270.3,616.9,267.2,616.9,263.5z"/>
		<path class="st1" d="M677.4,266.3c0,3.3,0.1,8.2,0.2,14.7c0.1,6.5,0.2,11.4,0.2,14.7c0,0.9-0.6,1.5-1.7,1.7
			c-1.5,0.3-5,0.4-10.4,0.4c-5.4,0-8.9-0.1-10.4-0.4c-1-0.2-1.6-0.5-1.8-0.9c-0.1-0.2-0.1-0.9-0.1-2c0-3.1,0.1-7.8,0.2-14
			c0.1-6.3,0.2-11,0.2-14.1c0-12.8-0.5-23-1.5-30.6c-0.1-0.7-0.1-1.2-0.1-1.4c0-0.9,0.6-1.4,1.8-1.4c1.3,0,3.2,0.1,5.8,0.4
			c2.6,0.3,4.5,0.4,5.9,0.4c1.3,0,3.3-0.1,5.9-0.3c2.6-0.2,4.6-0.3,5.9-0.3c1.1,0,1.6,0.5,1.6,1.4c0,0.2,0,0.6-0.1,1.3
			C677.9,244.5,677.4,254.7,677.4,266.3z M679.2,216c0,7.9-4.4,11.8-13.3,11.8c-3.8,0-6.9-1-9.4-3c-2.7-2.2-4.1-5.1-4.1-8.8
			c0-3.5,1.4-6.4,4.2-8.7c2.6-2.1,5.7-3.1,9.3-3.1c3.5,0,6.6,1.1,9.1,3.2C677.8,209.6,679.2,212.5,679.2,216z"/>
		<path class="st1" d="M757.8,295.4c0,1.2-0.6,1.9-1.9,2.1c-1.3,0.2-4.6,0.3-9.9,0.3c-5.7,0-9.2-0.1-10.6-0.4c-1.4-0.3-2-1.2-2-2.8
			c0-2.1,0.1-5.3,0.2-9.6c0.1-4.3,0.2-7.5,0.2-9.7c0-1.7,0-4.2-0.1-7.5s-0.1-5.8-0.1-7.5c0-6.2-2.7-9.3-8.1-9.3
			c-1.8,0-3.8,0.8-6.2,2.3c-2.5,1.7-3.8,3.4-3.8,5.1V295c0,1.5-0.7,2.3-2.1,2.5c-1.6,0.2-4.8,0.3-9.7,0.3c-5.3,0-8.7-0.1-10.3-0.4
			c-1.4-0.2-2.1-1-2.1-2.2c0-3.5,0-8.8,0.1-15.9c0-7.1,0.1-12.4,0.1-16c0-11.2-0.9-20.1-2.6-26.5c-0.1-0.4-0.1-0.7-0.1-1
			c0-0.7,0.3-1.2,1-1.5c2.8-0.3,6.6-0.8,11.4-1.5c7.2-1.4,11.2-2.1,12.1-2.1c0.5,0,0.9,1.5,1.2,4.6c0.3,3,0.7,4.6,1.2,4.6
			c-0.5,0,1.9-1.6,7.3-4.7c5.3-3.1,10-4.7,14-4.7c5.7,0,10.5,1.4,14.4,4.1c4.3,3.1,6.4,7.4,6.4,13v21.6c0,2.9,0,7.3,0.1,13.2
			C757.8,288.1,757.8,292.5,757.8,295.4z"/>
		<path class="st1" d="M836.5,279.8c0,12.9-2.7,22.1-8.1,27.7c-5.6,5.7-14.9,8.6-27.9,8.6c-3.8,0-9-0.6-15.5-1.8
			c-8.3-1.5-12.5-3.3-12.5-5.4c0-0.9,1-5.3,2.9-13.3c0.3-1.3,0.8-1.9,1.5-1.9c0.2,0,0.5,0.1,0.7,0.3c7,3.4,13.4,5.1,19.3,5.1
			c3.2,0,6.5-0.8,9.7-2.4c3.9-1.9,5.8-4.4,5.8-7.3v-4.5c-4.6,4.3-10.5,6.5-17.7,6.5c-8.5,0-15.5-3-20.9-9.1
			c-5.3-5.9-7.9-13.1-7.9-21.7c0-8.6,2.5-15.8,7.6-21.5c5.3-5.9,12.2-8.9,20.7-8.9c6.8,0,12,2.4,15.6,7.3c0.7,1,1.2,1.5,1.5,1.5
			c0.4,0,0.6-0.8,0.6-2.4c0-3.6,0.4-5.4,1.2-5.4c0.7,0,4.6,0.4,11.7,1.1s10.8,1.2,11,1.3c0.8,0.3,1.2,0.9,1.2,1.8
			c0,3.1-0.1,7.8-0.3,13.9c-0.2,6.2-0.3,10.8-0.3,13.9c0,1.9,0,4.6,0.1,8.3C836.5,275.1,836.5,277.9,836.5,279.8z M813.1,261
			c0-3.3-1.1-6.1-3.3-8.6c-2.2-2.4-4.9-3.6-8.2-3.6s-6,1.2-8.2,3.7c-2.2,2.5-3.3,5.3-3.3,8.6c0,3.3,1.1,6.1,3.4,8.5
			c2.2,2.4,5,3.6,8.2,3.6c3.3,0,6-1.2,8.2-3.7C812,267.2,813.1,264.3,813.1,261z"/>
	</g>
	<g>
		<path class="st1" d="M443.3,394.7c0,0.7-0.5,1.7-1.4,2.8c-8.3,9.9-19.3,14.8-33.1,14.8c-14.1,0-25.5-4.8-34.3-14.4
			c-8.5-9.3-12.8-21-12.8-35.2c0-13.7,4.2-25.4,12.5-34.9c8.7-10,19.8-15,33.2-15c14.6,0,26.1,4.5,34.4,13.5c0.9,1,1.4,1.9,1.4,2.6
			c0,0.9-1.6,4-4.7,9.5s-5.1,8.6-5.9,9.3c-0.4,0.4-0.8,0.5-1.4,0.5c-0.2,0-1.4-0.9-3.4-2.7c-2.4-2.2-4.8-3.9-7.2-5.1
			c-3.6-1.8-7.3-2.7-11.1-2.7c-6.6,0-11.9,2.5-15.9,7.4c-3.7,4.6-5.5,10.3-5.5,17.1c0,6.9,1.8,12.6,5.5,17.3c4,5.1,9.3,7.6,15.9,7.6
			c3.9,0,7.6-0.9,11.2-2.6c2.3-1.1,4.6-2.7,7-4.7c2-1.7,3.1-2.6,3.3-2.6c0.5,0,0.9,0.2,1.4,0.7c0.7,0.8,2.7,3.6,5.9,8.5
			C441.7,391.5,443.3,394.2,443.3,394.7z"/>
		<path class="st1" d="M515.3,376.7c0,10.3-3.1,18.6-9.4,25c-6.3,6.4-14.6,9.6-24.8,9.6c-9.9,0-18.1-3.2-24.5-9.5
			c-6.4-6.3-9.6-14.4-9.6-24.4c0-10.5,3.1-19,9.2-25.5c6.1-6.5,14.4-9.8,24.9-9.8c10.2,0,18.5,3.2,24.8,9.6S515.3,366.5,515.3,376.7
			z M493.1,376.7c0-3.6-1.1-6.7-3.3-9.4s-5.1-4.1-8.6-4.1c-3.6,0-6.5,1.4-8.8,4.2c-2.2,2.6-3.2,5.7-3.2,9.3c0,3.7,1.1,6.8,3.2,9.4
			c2.3,2.8,5.2,4.2,8.8,4.2c3.5,0,6.4-1.4,8.7-4.2C492,383.5,493.1,380.4,493.1,376.7z"/>
		<path class="st1" d="M595.3,313.9c0-1-0.2,0.5-0.5,4.5c-0.5,5-0.9,11.4-1.2,19.2c-0.4,8.8-0.5,18.9-0.5,30.2
			c0,18.6,0.5,31.9,1.6,39.8c0.1,0.9,0.1,1.4,0.1,1.6c0,0.5-0.3,0.8-1,0.9c-1.6,0.2-7.6,0.3-17.9,0.3c-2.4,0-3.8-0.5-4.2-1.4
			c-0.1-1.7-0.2-3.4-0.3-5.1c0-0.4-0.2-0.7-0.5-1.1c-0.3,0.1-0.6,0.4-1,0.8c-4.9,4.8-11,7.2-18.3,7.2c-9.5,0-17.1-3.3-22.9-10
			c-5.5-6.4-8.2-14.4-8.2-24.1c0-9.8,2.7-17.9,8.1-24.3c5.7-6.8,13.4-10.2,23-10.2c6.8,0,12.1,2.2,15.9,6.5c0.6,0.7,1.1,1.1,1.4,1.1
			c0.4,0,0.6-0.6,0.6-1.8c0-3.5-0.1-8.7-0.3-15.6c-0.2-6.9-0.3-12.1-0.3-15.5c0-1.3,0.4-2.1,1.1-2.2c2.9-0.1,6.9-0.4,11.9-0.8
			c9-1.1,13-1.7,12-1.7C594.8,312.3,595.3,312.8,595.3,313.9z M569.7,376.2c0-3.6-1.2-6.7-3.7-9.4c-2.5-2.7-5.5-4-9-4
			c-3.7,0-6.6,1.3-8.8,4s-3.3,5.9-3.3,9.6c0,3.7,1.1,6.7,3.3,9.3c2.3,2.7,5.2,4.1,8.8,4.1c3.6,0,6.6-1.4,9.1-4.1
			C568.5,383,569.7,379.8,569.7,376.2z"/>
		<path class="st1" d="M667.3,373.2c0,4.6-1.5,7.2-4.4,7.8c-0.5,0.1-5.2,0.6-14,1.5c-5.3,0.6-13.3,1.3-23.8,2.1
			c0.6,2.9,2.5,5.2,5.8,6.7c2.6,1.3,5.6,1.9,8.9,1.9c4,0,8.1-1.1,12.1-3.2c1.7-1.1,3.4-2.2,5.1-3.2c0.9,0.5,2.5,2.8,4.8,6.9
			c2.2,4.2,3.4,6.8,3.4,7.9c0,0.3-0.3,0.8-1,1.6c-5.5,5.9-14.1,8.9-25.7,8.9c-10.7,0-19.4-3.1-26-9.4c-6.8-6.4-10.2-14.9-10.2-25.5
			c0-10.4,3-18.9,9.1-25.5c6.2-6.9,14.5-10.3,24.8-10.3c8.7,0,16,3.2,22.1,9.5C664.3,357,667.3,364.5,667.3,373.2z M643.6,369.1
			c0-2.8-1-5.3-3-7.4s-4.4-3.2-7.1-3.2c-2.8,0-5.2,1.2-7,3.6c-1.7,2.2-2.6,4.8-2.6,7.8c0,1.2,0.6,1.8,1.9,1.8
			c3.3,0,8.5-0.5,15.6-1.6C642.8,370,643.6,369.6,643.6,369.1z"/>
		<path class="st1" d="M719.6,367.8c0,1.8-1,2.6-2.9,2.6c-0.9,0-2.1-0.1-3.8-0.2s-2.9-0.2-3.7-0.2c-3.7,0-6.3,0.6-7.6,1.8
			c-1.4,1.2-2,3.5-2,7.1c0,1.9,0,4.9,0.1,8.8s0.1,6.9,0.1,8.8c0,1.3,0.1,3.3,0.3,5.9c0.2,2.6,0.3,4.5,0.3,5.8c0,1.1-0.7,1.7-2.2,1.8
			c-2.2,0.2-5.5,0.3-10,0.3c-4.3,0-7.7-0.1-10.3-0.4c-1.5-0.2-2.2-0.9-2.2-2.2c0-3.6,0-9,0.1-16.2c0-7.2,0.1-12.6,0.1-16.2
			c0-10.6-1-19.3-2.9-26.2c-0.1-0.4-0.1-0.7-0.1-1c0-0.7,0.3-1.1,1-1.4c2.5-0.3,6.1-0.8,10.9-1.5c7.1-1.4,10.8-2.1,11-2.1
			c0.8,0,1.3,1.4,1.6,4.3s0.6,4.3,1.2,4.3c-0.6,0,1.2-1.2,5.6-3.6c4.3-2.4,8.5-3.6,12.5-3.6c2.5,0,3.8,0.5,3.8,1.6
			c0,1.3-0.1,3.2-0.4,5.6c-0.3,2.6-0.4,4.4-0.5,5.6c0,1.3,0,3,0.1,5.2C719.6,365.2,719.6,367,719.6,367.8z"/>
		<path class="st1" d="M767.1,355.2c0,0.5-0.3,1.1-1,1.8c-1.3-0.3-2.5-0.5-3.8-0.5c-2.7,0-4.9,0.6-6.7,1.8c-2.2,1.4-3.2,3.3-3.2,5.8
			c0,1.6,1.2,3.6,3.5,6c3.5,3.7,5.6,6.1,6.4,7.4c2.3,3.4,3.5,7.1,3.5,11c0,2.3-0.5,4.7-1.4,7.3c-1,2.8-2.3,4.9-3.9,6.2
			c-3.3,2.9-7.2,5.3-11.7,7.3c-4.8,2.1-9.3,3.1-13.3,3.1c-0.9,0-2.9-2.4-6.1-7.3s-4.7-7.9-4.7-9c0-0.4,0.2-0.7,0.7-0.7
			c3.2-0.6,6.3-1.2,9.5-1.8c4-1.3,6-3.3,6-6.2c0-2-1.2-4.3-3.5-6.9c-4.1-4.6-6.3-7-6.4-7.2c-2.3-3.2-3.5-6.7-3.5-10.3
			c0-6.8,3.4-12.5,10.3-17.3c6.1-4.2,12.7-6.3,19.7-6.3c0.7,0,2.5,2.4,5.3,7.3S767.1,354.4,767.1,355.2z"/>
	</g>
	<g>
		<linearGradient id="SVGID_2_" gradientUnits="userSpaceOnUse" x1="422.9197" y1="437.6411" x2="705.9817" y2="437.6411">
			<stop  offset="0" style="stop-color:#00CCE9"/>
			<stop  offset="8.999372e-02" style="stop-color:#0CA4ED"/>
			<stop  offset="0.2597" style="stop-color:#215EF5"/>
			<stop  offset="0.4016" style="stop-color:#302BFA"/>
			<stop  offset="0.5082" style="stop-color:#390CFE"/>
			<stop  offset="0.5674" style="stop-color:#3D00FF"/>
			<stop  offset="0.9944" style="stop-color:#005B97"/>
			<stop  offset="1" style="stop-color:#1241B5"/>
		</linearGradient>
		<path class="st2" d="M700.2,443.4H428.7c-3.2,0-5.8-2.6-5.8-5.8c0-3.2,2.6-5.8,5.8-5.8h271.5c3.2,0,5.8,2.6,5.8,5.8
			C706,440.8,703.4,443.4,700.2,443.4z"/>
	</g>
</g>
</svg>
